<svg width="23" height="23" viewBox="0 0 23 23" fill="none" xmlns="http://www.w3.org/2000/svg">
<g clip-path="url(#clip0_456_181)">
<path fill-rule="evenodd" clip-rule="evenodd" d="M0.958328 11.5C0.958328 14.8685 1.8927 17.4953 3.66562 19.2845C5.45483 21.09 8.09791 22.0417 11.5 22.0417C15.1311 22.0417 17.8988 20.9568 19.6861 18.906C21.2309 17.1331 22.0417 14.6385 22.0417 11.5C22.0417 8.53875 21.32 6.15058 19.941 4.40067C18.1671 2.15146 15.3075 0.958333 11.5 0.958333C8.11516 0.958333 5.47975 1.90133 3.69054 3.69054C1.90133 5.47975 0.958328 8.11517 0.958328 11.5ZM2.87499 11.5C2.87499 8.63842 3.60045 6.48217 5.04083 5.04083C6.48216 3.60142 8.63841 2.875 11.5 2.875C14.0041 2.875 15.9677 3.43083 17.3842 4.53483C19.2079 5.95412 20.125 8.28 20.125 11.5C20.125 14.606 19.2702 16.882 17.573 18.3128C16.1441 19.5184 14.1162 20.125 11.5 20.125C8.8435 20.125 6.79458 19.5002 5.36187 18.2572C3.70874 16.8235 2.87499 14.5676 2.87499 11.5ZM14.8034 8.19663C14.6613 8.81075 14.5057 9.42168 14.3367 10.029C14.0346 11.1325 13.6886 12.2237 13.2997 13.2998C11.6286 13.8983 9.92443 14.4004 8.19566 14.8034C8.33878 14.1894 8.4947 13.5785 8.66333 12.971C8.96541 11.8674 9.31132 10.7763 9.70025 9.70025C11.371 9.10133 13.0748 8.59929 14.8034 8.19663ZM16.7708 6.22917C15.9055 6.38058 14.9941 6.57033 14.053 6.79842C13.0547 7.04057 12.0642 7.31415 11.0831 7.61875C10.2154 7.88792 9.35631 8.18419 8.50712 8.50712C8.18427 9.35634 7.888 10.2154 7.61875 11.0831C7.31465 12.064 7.04108 13.0542 6.79841 14.052C6.57956 14.952 6.38971 15.8587 6.22916 16.7708C7.14128 16.6102 8.04801 16.4204 8.94795 16.2016C9.94582 15.9585 10.9359 15.6846 11.9169 15.3803C12.7846 15.1114 13.6437 14.8155 14.4929 14.4929C14.8005 13.686 15.0995 12.8225 15.3803 11.9169C15.6853 10.9361 15.9592 9.946 16.2016 8.94796C16.4203 8.04801 16.6102 7.14128 16.7708 6.22917ZM12.1785 12.2398C12.0165 12.3836 11.7885 12.4583 11.5 12.4583C11.154 12.4583 10.8934 12.35 10.7333 12.145C10.6078 11.9868 10.5417 11.7693 10.5417 11.5C10.5417 11.1914 10.6279 10.9518 10.7908 10.7899C10.9537 10.627 11.1933 10.5417 11.5 10.5417C11.7932 10.5417 12.0242 10.6193 12.1862 10.7678C12.3644 10.9308 12.4583 11.178 12.4583 11.5C12.4583 11.8268 12.3615 12.0769 12.1785 12.2398Z" fill="white"/>
</g>
<defs>
<clipPath id="clip0_456_181">
<rect width="23" height="23" fill="white"/>
</clipPath>
</defs>
</svg>
