<svg width="23" height="23" viewBox="0 0 23 23" fill="none" xmlns="http://www.w3.org/2000/svg">
<g clip-path="url(#clip0_456_181)">
<path d="M12.037 3.07C12.47 3.28 13.437 3.902 15.592 5.653C17.475 7.184 19.339 9.059 20.127 9.873C20.458 11.654 20.697 13.462 20.84 15.255C21.004 17.319 21.041 18.952 20.953 21H15.995V16.692C15.9937 15.6329 15.5724 14.6175 14.8234 13.8686C14.0745 13.1196 13.0591 12.6983 12 12.697C9.797 12.697 7.985 14.489 7.985 16.692V21H3.047C2.95834 19.0846 2.99609 17.1654 3.16 15.255C3.302 13.462 3.541 11.655 3.872 9.874C4.661 9.059 6.525 7.184 8.408 5.654C10.566 3.899 11.618 3.28 12.037 3.07ZM12.005 1H11.993C11.351 1 9.677 2.044 7.145 4.101C4.536 6.223 2.02 8.918 2.02 8.918C1.61661 10.9595 1.3318 13.0226 1.167 15.097C0.910003 18.327 0.982003 20.71 1.167 23H10V16.69C10 16.1596 10.2107 15.6509 10.5858 15.2758C10.9609 14.9007 11.4696 14.69 12 14.69C12.5304 14.69 13.0391 14.9007 13.4142 15.2758C13.7893 15.6509 14 16.1596 14 16.69V23H22.833C23.018 20.71 23.09 18.327 22.833 15.097C22.6686 13.0223 22.3841 10.9588 21.981 8.917C21.981 8.917 19.464 6.223 16.853 4.101C14.323 2.044 12.789 1 12.005 1Z" fill="white"/>
</g>
<defs>
<clipPath id="clip0_456_181">
<rect width="23" height="23" fill="white"/>
</clipPath>
</defs>
</svg>
