<svg xmlns="http://www.w3.org/2000/svg" width="146" height="41" fill="none" viewBox="0 0 146 41">
  <g clip-path="url(#a)">
    <path fill="#fff" fill-rule="evenodd" d="M51.971 10.02h8.09c5.008 0 8.55 3.328 8.55 8.057 0 4.729-3.542 8.056-8.55 8.056h-8.09V10.02Zm6.287 11.76h1.467c1.572 0 2.41-1.046 2.41-3.703 0-2.658-.838-3.704-2.41-3.704h-1.467v7.407Zm24.603 4.353H69.574V10.02h13.287v4.352h-7.02v1.862h6.6v3.558h-6.6v1.987h7.02v4.353Zm14.795 0H84.37V10.02h13.286v4.352h-7.02v1.862h6.6v3.558h-6.6v1.987h7.02v4.353Zm48.221 0c-.905-2.464-2.172-5.093-3.875-8.04 1.992-.583 3.183-1.837 3.183-3.762 0-2.93-2.703-4.31-6.978-4.31h-8.802v16.112h6.287v-6.665c1.397 2.349 2.426 4.566 3.102 6.665h7.083Zm-10.185-8.914v-2.846h2.18c.922 0 1.446.502 1.446 1.423 0 .92-.524 1.423-1.446 1.423h-2.18Zm-7.796 8.914H114.61V10.02h13.286v4.352h-7.02v1.862h6.601v3.558h-6.601v1.987h7.02v4.353Zm-28.73-11.76h6.486c-2.691 2.199-4.906 4.69-6.613 7.407v4.353h14.272V21.78h-7.134c1.635-2.374 3.919-4.739 7.134-7.407v-4.352H99.165v4.352Z" clip-rule="evenodd"/>
    <path fill="#A238FF" fill-rule="evenodd" d="M34.288 6.3c.378-2.188.933-3.564 1.548-3.566 1.147.004 2.076 4.776 2.076 10.667 0 5.892-.93 10.667-2.078 10.667-.47 0-.904-.81-1.254-2.17-.552 4.975-1.698 8.394-3.024 8.394-1.027 0-1.948-2.054-2.567-5.293-.422 6.16-1.485 10.532-2.727 10.532-.78 0-1.49-1.732-2.016-4.553-.633 5.822-2.095 9.901-3.8 9.901-1.704 0-3.168-4.078-3.798-9.9-.523 2.82-1.233 4.552-2.017 4.552-1.242 0-2.302-4.371-2.727-10.532-.618 3.24-1.537 5.293-2.566 5.293-1.325 0-2.473-3.418-3.025-8.393-.347 1.362-.783 2.17-1.254 2.17-1.147 0-2.077-4.776-2.077-10.668 0-5.891.93-10.667 2.077-10.667.616 0 1.167 1.38 1.55 3.566C7.22 2.527 8.213.075 9.337.075c1.334 0 2.49 3.468 3.038 8.504.535-3.665 1.347-6.002 2.257-6.002 1.274 0 2.358 4.596 2.76 11.007.754-3.287 1.847-5.35 3.056-5.35 1.21 0 2.303 2.064 3.056 5.35.403-6.41 1.485-11.007 2.76-11.007.908 0 1.719 2.337 2.257 6.002.546-5.036 1.702-8.504 3.036-8.504 1.12 0 2.118 2.454 2.73 6.225ZM.013 12.352c0-2.634.528-4.77 1.179-4.77.65 0 1.178 2.136 1.178 4.77 0 2.633-.528 4.77-1.178 4.77-.651 0-1.179-2.137-1.179-4.77Zm38.51 0c0-2.634.527-4.77 1.178-4.77.65 0 1.179 2.136 1.179 4.77 0 2.633-.528 4.77-1.179 4.77-.65 0-1.178-2.137-1.178-4.77Z" clip-rule="evenodd"/>
  </g>
  <defs>
    <clipPath id="a">
      <path fill="#fff" d="M0 0h146v41H0z"/>
    </clipPath>
  </defs>
</svg>
