<svg width="20" height="22" viewBox="0 0 20 22" fill="none" xmlns="http://www.w3.org/2000/svg">
<path d="M14.316 6.886C11.9857 5.43902 9.60945 4.06731 7.19099 2.773C5.44423 1.83658 3.674 0.944629 1.88199 0.0980003C1.73021 0.0267961 1.56346 -0.00665695 1.39596 0.000492084C1.22845 0.00764112 1.06516 0.0551802 0.919994 0.139058C0.774829 0.222936 0.652093 0.340666 0.562247 0.482216C0.472401 0.623766 0.418108 0.784939 0.403995 0.952C0.241186 2.92683 0.128483 4.90546 0.0659949 6.886C-0.0220186 9.62796 -0.0220186 12.372 0.0659949 15.114C0.131995 17.164 0.245995 19.149 0.403995 21.048C0.418108 21.2151 0.472401 21.3762 0.562247 21.5178C0.652093 21.6593 0.774829 21.7771 0.919994 21.8609C1.06516 21.9448 1.22845 21.9924 1.39596 21.9995C1.56346 22.0067 1.73021 21.9732 1.88199 21.902C3.67416 21.055 5.44472 20.1631 7.192 19.227C9.61003 17.9325 11.9859 16.5608 14.316 15.114C16.0176 14.0585 17.6918 12.9595 19.337 11.818C19.4688 11.7261 19.5765 11.6038 19.6508 11.4614C19.7252 11.3189 19.764 11.1607 19.764 11C19.764 10.8393 19.7252 10.6811 19.6508 10.5386C19.5765 10.3962 19.4688 10.2739 19.337 10.182C17.6918 9.04058 16.0176 7.94155 14.316 6.886Z" fill="white"/>
</svg>
